# xmcd
#
# Track frame offsets:
#	150
#	16212
#	26534
#	41016
#	56892
#	70859
#	85465
#	98398
#	114290
#	125747
#	141395
#	156718
#	157503
#
# Disc length: 2316 seconds
#
# Revision: 0
# Processed by: cddbd v1.5.1PL2 Copyright (c) Steve Scherf et al.
# Submitted via: EasyCDDAExtractor 9.0.0.1
#
DISCID=a9090a0d
DTITLE=Various Artist - Hillcrest 29
DYEAR=2006
DGENRE=Country
TTITLE0=Randy Archer - Just As Crazy
TTITLE1=Phil Humphrey - Mule Skinner Blues
TTITLE2=Mike Lee - It's True
TTITLE3=Craig Moritz - Love's Hard
TTITLE4=Sliverwood - I Couldn't Leave You If I Tired
TTITLE5=Cindy Dixon - Snowbird
TTITLE6=Grant Daniels - Where Did All The Bluegrass Go
TTITLE7=Thunder Road - Everythings Different Now
TTITLE8=Lonnie Spiker - Let Faces The Music
TTITLE9=Lorraine Davis - Me And My Man
TTITLE10=Steve Roberson - Hey Loretta
TTITLE11=Michael Humphrey - Liner Id
TTITLE12=Michael Humphrey - Holding On
EXTD=
EXTT0=
EXTT1=
EXTT2=
EXTT3=
EXTT4=
EXTT5=
EXTT6=
EXTT7=
EXTT8=
EXTT9=
EXTT10=
EXTT11=
EXTT12=
PLAYORDER=
